<?xml version="1.0" standalone="no"?>
<!DOCTYPE svg PUBLIC "-//W3C//DTD SVG 20010904//EN"
 "http://www.w3.org/TR/2001/REC-SVG-20010904/DTD/svg10.dtd">
<svg version="1.0" xmlns="http://www.w3.org/2000/svg"
 width="400.000000pt" height="400.000000pt" viewBox="0 0 400.000000 400.000000"
 preserveAspectRatio="xMidYMid meet">
<metadata>
Created by potrace 1.14, written by Peter Selinger 2001-2017
</metadata>
<g transform="translate(0.000000,400.000000) scale(0.100000,-0.100000)"
fill="#000000" stroke="none">
<path d="M1163 3799 c-13 -4 -35 -10 -50 -13 -16 -2 -29 -5 -30 -6 -2 -2 -6
-3 -10 -5 -5 -1 -17 -5 -28 -10 -11 -4 -36 -14 -55 -22 -77 -30 -130 -57 -130
-64 0 -5 -7 -6 -15 -3 -8 4 -15 1 -15 -6 0 -6 -5 -8 -10 -5 -6 3 -13 -1 -16
-9 -3 -9 -9 -14 -13 -11 -4 2 -27 -9 -52 -26 -24 -16 -49 -29 -55 -29 -7 0
-14 -7 -18 -15 -3 -8 -10 -15 -16 -15 -10 0 -45 -27 -87 -67 -13 -12 -23 -19
-23 -16 0 3 -10 -7 -22 -23 -13 -16 -27 -33 -33 -39 -20 -18 -95 -113 -95
-120 0 -3 -6 -13 -12 -20 -32 -36 -51 -66 -104 -172 -23 -46 -38 -83 -33 -83
6 0 6 -7 0 -18 -9 -17 -20 -74 -24 -129 -1 -13 -5 -23 -9 -23 -4 0 -10 -10
-14 -22 -7 -23 -71 -118 -87 -129 -5 -3 -9 -10 -10 -15 -1 -5 -5 -8 -9 -7 -5
2 -8 -1 -8 -7 0 -11 -34 -53 -62 -79 -16 -14 -18 -71 -18 -833 0 -450 3 -818
8 -818 5 0 18 -9 30 -20 12 -12 22 -17 22 -13 0 4 4 3 8 -2 8 -12 56 -51 97
-80 15 -11 36 -28 47 -37 10 -10 20 -18 23 -18 3 0 15 -9 27 -20 12 -11 28
-20 35 -20 7 0 13 -4 13 -10 0 -5 6 -10 14 -10 8 0 16 -3 18 -7 5 -13 102 -76
115 -76 7 0 11 -3 8 -5 -6 -7 27 -31 43 -32 6 0 21 -9 32 -20 11 -11 27 -20
35 -20 8 0 15 -4 15 -10 0 -5 4 -10 10 -10 5 0 32 -14 60 -30 28 -17 57 -30
65 -30 7 0 15 -4 17 -8 3 -9 87 -50 102 -50 5 0 12 -4 15 -9 9 -15 191 -84
202 -78 5 4 9 2 9 -3 0 -5 21 -15 48 -22 26 -6 56 -16 67 -20 11 -5 49 -14 85
-20 36 -7 72 -14 80 -17 19 -6 92 -14 143 -15 20 -1 37 -4 37 -7 0 -3 30 -7
68 -8 37 -1 106 -3 155 -5 51 -2 92 1 99 7 7 7 9 7 5 -1 -4 -7 17 -10 66 -9
40 1 79 -2 88 -6 9 -5 19 -5 23 -1 9 8 96 9 96 1 0 -4 17 -3 37 1 20 5 41 6
47 2 15 -9 69 -9 88 0 9 4 19 4 22 -1 6 -10 116 -10 116 -1 0 4 10 6 23 5 12
-1 35 4 50 12 15 8 32 11 37 8 6 -3 10 -3 10 2 0 4 17 8 38 8 20 0 41 1 46 4
5 2 38 5 75 7 107 4 174 12 180 21 3 4 11 8 16 8 13 0 279 88 285 95 3 3 12 6
20 7 49 6 150 36 150 44 0 6 3 8 8 6 4 -3 41 31 83 74 43 44 76 79 74 79 -1 0
14 18 34 39 21 22 50 59 67 83 16 24 37 51 47 60 10 9 18 18 17 20 -3 8 13 37
19 34 15 -10 73 96 76 137 6 80 -57 189 -176 307 -59 59 -69 73 -59 85 7 8 9
15 6 15 -19 0 28 31 97 64 42 20 77 41 77 47 0 5 4 8 9 5 14 -9 121 84 121
104 0 6 4 9 9 6 12 -8 31 40 31 79 0 19 -4 37 -10 40 -5 3 -10 15 -10 25 0 10
-3 20 -7 22 -12 5 -53 66 -53 78 0 6 -5 8 -10 5 -6 -3 -10 0 -10 8 0 7 -8 22
-18 33 -9 10 -39 49 -65 86 -26 36 -54 74 -63 82 -8 9 -12 16 -7 16 4 0 0 6
-9 13 -20 15 -32 57 -21 73 5 6 34 25 66 43 31 18 57 37 57 42 0 6 4 8 9 5 12
-8 43 29 34 39 -5 4 -3 5 3 2 17 -10 49 35 52 73 1 18 19 68 40 109 20 42 37
81 37 86 0 6 4 16 8 23 5 6 6 16 2 21 -3 5 -1 12 4 15 8 6 7 70 -4 181 -6 67
-8 79 -25 150 -6 28 -13 57 -15 67 -9 45 -59 109 -109 142 -62 40 -158 86
-167 81 -5 -4 -9 -2 -9 3 0 12 -130 76 -147 73 -7 -1 -13 3 -13 9 0 5 -5 10
-11 10 -6 0 -25 7 -42 15 -33 14 -148 59 -157 60 -3 0 -12 5 -20 10 -17 11
-115 53 -142 62 -10 3 -18 9 -18 14 0 5 -5 9 -11 9 -6 0 -38 13 -69 29 -32 16
-61 27 -64 24 -3 -4 -6 -1 -6 6 0 7 -4 10 -9 6 -5 -3 -16 0 -23 7 -30 28 -125
75 -140 70 -5 -1 -8 3 -8 10 0 6 -3 9 -6 5 -4 -3 -19 0 -34 8 -15 8 -54 16
-86 19 -32 2 -60 5 -61 7 -8 5 -30 5 -42 -2 -8 -4 -25 -3 -38 2 -13 5 -25 4
-28 -2 -4 -5 -11 -7 -16 -3 -5 3 -17 0 -26 -8 -14 -11 -16 -11 -9 1 6 10 4 12
-10 7 -11 -3 -30 -7 -44 -10 -53 -10 -146 -37 -177 -51 -17 -8 -38 -15 -47
-15 -9 0 -16 -4 -16 -8 0 -4 -16 -14 -35 -21 -19 -7 -35 -16 -35 -20 0 -4 -24
-7 -54 -6 -44 2 -64 10 -115 44 -34 22 -67 41 -72 41 -5 0 -9 4 -9 8 0 5 -12
15 -27 23 -16 8 -30 16 -33 19 -5 5 -24 16 -85 47 -64 33 -90 44 -105 46 -8 2
-20 6 -26 10 -7 4 -32 8 -58 9 -25 2 -46 6 -46 9 0 8 -173 5 -187 -4 -6 -4
-13 -3 -15 2 -2 5 -13 5 -25 0z"/>
</g>
</svg>
